<?xml version="1.0" encoding="UTF-8" standalone="no"?>
<!-- Created with Inkscape (http://www.inkscape.org/) -->

<svg
   width="512"
   height="256"
   viewBox="0 0 512 256"
   version="1.1"
   id="svg1"
   inkscape:version="1.3.2 (091e20e, 2023-11-25, custom)"
   sodipodi:docname="logo_s.svg"
   xml:space="preserve"
   xmlns:inkscape="http://www.inkscape.org/namespaces/inkscape"
   xmlns:sodipodi="http://sodipodi.sourceforge.net/DTD/sodipodi-0.dtd"
   xmlns:xlink="http://www.w3.org/1999/xlink"
   xmlns="http://www.w3.org/2000/svg"
   xmlns:svg="http://www.w3.org/2000/svg"
   xmlns:rdf="http://www.w3.org/1999/02/22-rdf-syntax-ns#"
   xmlns:cc="http://creativecommons.org/ns#"
   xmlns:dc="http://purl.org/dc/elements/1.1/"><title
     id="title2">十八桥竖型标志</title><sodipodi:namedview
     id="namedview1"
     pagecolor="#ffffff"
     bordercolor="#000000"
     borderopacity="0.25"
     inkscape:showpageshadow="2"
     inkscape:pageopacity="0.0"
     inkscape:pagecheckerboard="0"
     inkscape:deskcolor="#d1d1d1"
     inkscape:document-units="px"
     inkscape:zoom="1.5253906"
     inkscape:cx="288.45071"
     inkscape:cy="211.42126"
     inkscape:window-width="1920"
     inkscape:window-height="991"
     inkscape:window-x="-9"
     inkscape:window-y="-9"
     inkscape:window-maximized="1"
     inkscape:current-layer="layer1" /><defs
     id="defs1"><linearGradient
       id="linearGradient6"
       inkscape:collect="always"><stop
         style="stop-color:#c9334e;stop-opacity:1;"
         offset="0.10351967"
         id="stop7" /><stop
         style="stop-color:#ed556a;stop-opacity:1;"
         offset="0.89855075"
         id="stop8" /></linearGradient><linearGradient
       inkscape:collect="always"
       xlink:href="#linearGradient6"
       id="linearGradient8"
       x1="76.84391"
       y1="82.335785"
       x2="355.96341"
       y2="112.68311"
       gradientUnits="userSpaceOnUse"
       gradientTransform="translate(-45.769741,-20.397385)" /><filter
       id="mask-powermask-path-effect9_inverse"
       inkscape:label="filtermask-powermask-path-effect9"
       style="color-interpolation-filters:sRGB"
       height="100"
       width="100"
       x="-50"
       y="-50"><feColorMatrix
         id="mask-powermask-path-effect9_primitive1"
         values="1"
         type="saturate"
         result="fbSourceGraphic" /><feColorMatrix
         id="mask-powermask-path-effect9_primitive2"
         values="-1 0 0 0 1 0 -1 0 0 1 0 0 -1 0 1 0 0 0 1 0 "
         in="fbSourceGraphic" /></filter><clipPath
       clipPathUnits="userSpaceOnUse"
       id="clipPath9"><rect
         style="fill:#000000;fill-opacity:1;stroke:none;stroke-width:11.7424;stroke-dasharray:none;stroke-opacity:1"
         id="rect9"
         width="258.61432"
         height="69.654175"
         x="32.040607"
         y="-84.563484"
         transform="scale(1,-1)" /></clipPath></defs><g
     inkscape:label="图层 1"
     inkscape:groupmode="layer"
     id="layer1"
     transform="translate(-3.9329999,-97.434705)"><path
       d="m 106.86614,261.00518 h 61.86651 V 249.00521 H 106.86614 V 200.472 H 92.199508 v 48.53321 H 29.933 v 11.99997 h 62.266508 v 60.79985 h 14.666632 z m 215.06622,60.93318 8.53331,-10.13331 c -7.46665,-11.7333 -14.66663,-26.2666 -20.93328,-40.53323 l -0.66667,-1.46666 -0.39999,-0.8 -0.66667,-1.59999 -1.6,-3.73333 -0.66666,-1.59999 c -9.46664,-22.66661 -16.53329,-43.33323 -18.93329,-50.39987 l -0.13333,-0.53334 c -0.26666,-0.53333 -0.4,-1.06666 -0.53333,-1.33333 l -12.1333,0.93334 c 1.99999,5.86665 12.5333,37.9999 26.93326,70.39982 l 0.8,1.59999 0.66666,1.46666 c 0.26667,0.53334 0.4,1.06667 0.66667,1.6 l 0.66666,1.46666 4.39999,9.06665 0.8,1.59999 c 4.13332,8.39998 8.66665,16.66663 13.19997,23.99994 z m -135.33299,-10.13331 7.99998,10.26664 c 23.86661,-16.79995 35.73324,-45.99988 41.99989,-74.93314 l 0.4,-1.33333 0.8,-3.86665 0.53333,-2.66666 c 0.53333,-3.06666 1.06667,-6.13332 1.46666,-9.06665 l 0.26667,-1.33333 0.13333,-1.33333 0.26667,-1.19999 1.6,-12.53331 -14.1333,-0.79999 c -0.26667,3.59999 -0.66667,7.06664 -1.06667,10.79997 l -0.13333,1.33333 -0.4,2.53333 -0.13333,1.33333 -0.53333,3.33332 -0.13334,1.33333 c -4.66665,29.59992 -15.19996,61.86651 -38.93323,78.13313 z M 381.13231,255.8052 c 4.39999,5.46665 9.19998,12.26663 11.06664,15.86662 l 7.33331,-8.26664 c -2.39999,-3.46666 -15.06662,-18.39996 -18.39995,-22.39995 v -4.79998 h 17.99995 V 225.40527 H 381.13231 V 200.472 h -11.59997 v 24.93327 h -20.93328 v 10.79998 h 18.93329 c -4.26666,16.13329 -12.53331,37.86657 -23.06661,49.59987 l 8.66664,8.93331 c 4.66666,-5.86665 11.06664,-18.79995 16.39996,-31.19992 v 58.39985 h 11.59997 z m 18.93329,57.73318 6.26665,9.59998 c 22.93327,-12.1333 28.79992,-31.59992 28.79992,-45.19989 v -10.66664 h -11.3333 c 6.66665,-5.73331 12.26663,-14.66662 16.79996,-22.39994 h 14.39996 c 4.13332,7.19998 9.99997,16.53329 16.39996,22.66661 h -12.13331 v 53.7332 h 12.53331 v -53.19987 c 3.73332,3.19999 7.86664,6.13332 11.46663,7.86665 2,-1.86666 5.73332,-6.39998 8.53331,-8.26665 -8.53331,-4.66665 -17.59995,-13.99996 -23.59994,-22.79994 h 21.06662 l -0.13334,-10.5333 h -44.39988 c 1.73333,-5.33332 4.53332,-12.13331 5.86665,-17.86663 3.33332,-0.26666 6.53332,-0.66666 9.73331,-1.06666 l 1.46666,-0.26667 c 7.46665,-0.93333 14.5333,-2.13332 20.79995,-3.46665 l -7.59998,-9.59998 c -8.66665,2 -20.93328,3.59999 -33.99992,4.93332 l -1.33333,0.26667 -1.46666,0.13333 c -1.2,0.13333 -2.39999,0.13333 -3.59999,0.26667 l -1.46666,0.13333 c -0.93333,0.13333 -1.86666,0.13333 -2.8,0.26667 l -1.46666,0.13333 c -2.66666,0.26666 -5.33332,0.4 -7.86664,0.66666 h -1.46667 l -11.06664,0.8 c 1.6,2.4 2.93333,6.66665 3.33333,9.33331 4.13332,-0.13333 8.79998,-0.4 13.46663,-0.66666 h 1.33333 c 3.19999,-0.26667 6.39998,-0.4 9.46664,-0.53334 -1.46666,5.33332 -3.33332,11.99997 -5.19998,16.5333 h -26.13327 v 10.5333 h 21.06661 c -5.99998,9.19998 -15.73329,17.46662 -25.4666,22.26661 l 6.26665,10.39997 c 1.2,-0.66666 2.4,-1.33333 3.73333,-1.99999 l 1.86666,-0.93333 c 4.13332,-2.13333 8.13331,-4.39999 11.19997,-6.66665 v 9.86664 c 0,10.66664 -5.33332,26.53327 -23.33327,35.73324 z"
       id="text1"
       style="font-size:133.333px;font-family:'Chill K Sans';-inkscape-font-specification:'Chill K Sans';fill:#ed556a;stroke-width:1.101"
       aria-label="十八桥" /><path
       id="path1"
       clip-path="url(#clipPath9)"
       style="fill:none;stroke:url(#linearGradient8);stroke-width:21.4312"
       transform="matrix(1.0316609,0,0,1.0316609,-3.12204,114.04808)"
       d="M 296.89688,146.01543 A 135.46666,120.38541 0 0 1 161.43022,266.40083 135.46666,120.38541 0 0 1 25.963562,146.01543 135.46666,120.38541 0 0 1 161.43022,25.63002 135.46666,120.38541 0 0 1 296.89688,146.01543 Z" /></g><metadata
     id="metadata2"><rdf:RDF><cc:Work
         rdf:about=""><dc:title>十八桥竖型标志</dc:title><dc:creator><cc:Agent><dc:title>Diamochang</dc:title></cc:Agent></dc:creator><dc:rights><cc:Agent><dc:title>© 2024 Diamochang, The Bridge Eighteen Community and Favocas Organization.</dc:title></cc:Agent></dc:rights><dc:date>2024/6</dc:date><dc:publisher><cc:Agent><dc:title>十八桥</dc:title></cc:Agent></dc:publisher><dc:language>zh-CN</dc:language><dc:subject><rdf:Bag><rdf:li>标志</rdf:li></rdf:Bag></dc:subject><dc:description>十八桥的中文竖型标志，包括拱桥图形标志和文字。</dc:description></cc:Work></rdf:RDF></metadata></svg>
